<svg xmlns="http://www.w3.org/2000/svg" viewBox="0 0 700 420" role="img" aria-labelledby="title desc"><title id="title">A frosted birthday cake</title><desc id="desc">A pink layered birthday cake with cream frosting and berries.</desc><defs><linearGradient id="cake" x1="0" x2="1"><stop stop-color="#d86f78"/><stop offset=".5" stop-color="#f09a91"/><stop offset="1" stop-color="#c95768"/></linearGradient><linearGradient id="cream" x1="0" x2="1"><stop stop-color="#fff3e4"/><stop offset="1" stop-color="#f5c9b3"/></linearGradient><filter id="shadow"><feDropShadow dx="0" dy="16" stdDeviation="12" flood-color="#6f3650" flood-opacity=".25"/></filter></defs><ellipse cx="350" cy="377" rx="285" ry="27" fill="#f7e4d0" stroke="#d89454" stroke-width="7"/><g filter="url(#shadow)"><path d="M112 185h476v137c0 25-23 44-51 44H163c-28 0-51-19-51-44Z" fill="url(#cake)" stroke="#a94e61" stroke-width="7"/><path d="M102 183c0-24 27-43 60-43h376c33 0 60 19 60 43v35c-20 12-34-7-48 7-18 18-36 18-54 0-19-18-37 18-56 0-19-18-38 18-57 0-19-18-38 18-57 0-19-18-38 18-57 0-19-18-38 18-57 0-19-18-38 15-57-2-19-16-39 12-55 0Z" fill="url(#cream)" stroke="#eab59f" stroke-width="6"/><ellipse cx="350" cy="143" rx="238" ry="62" fill="#f9d8c5" stroke="#eab59f" stroke-width="7"/><ellipse cx="350" cy="136" rx="210" ry="45" fill="#fff3e4"/><path d="M175 246h350" stroke="#a94e61" stroke-width="8" opacity=".35"/><path d="M203 291h294" stroke="#fff1df" stroke-width="12" stroke-linecap="round" opacity=".35"/><circle cx="215" cy="111" r="14" fill="#d89454"/><circle cx="486" cy="109" r="14" fill="#d89454"/><circle cx="260" cy="101" r="10" fill="#d16f79"/><circle cx="440" cy="101" r="10" fill="#d16f79"/><path d="M319 134c18-21 42-4 31 14-9 15-31 28-31 28s-22-13-31-28c-11-18 13-35 31-14Z" fill="#d16f79"/></g></svg>
